<?xml version="1.0"?>
<svg width="306" height="48" xmlns="http://www.w3.org/2000/svg" xmlns:svg="http://www.w3.org/2000/svg">
 <g class="layer">
  <title>Layer 1</title>
  <path d="m35.37,10.57c1.54,1.54 1.86,4.39 0.62,8.11c-1.23,3.67 -3.87,7.86 -7.69,11.68c-3.82,3.82 -8.02,6.47 -11.68,7.69c-3.73,1.24 -6.58,0.93 -8.12,-0.61c-1.54,-1.55 -1.86,-4.4 -0.62,-8.12c1.22,-3.67 3.87,-7.86 7.69,-11.68c3.82,-3.82 8.02,-6.47 11.68,-7.69c3.73,-1.24 6.58,-0.93 8.12,0.62z" fill="#00E016" id="svg_1" stroke="#00E016" stroke-width="2"/>
  <path d="m87.8,10.57c1.54,1.54 1.85,4.39 0.61,8.11c-1.22,3.67 -3.87,7.86 -7.69,11.68c-3.81,3.82 -8.01,6.47 -11.68,7.69c-3.72,1.24 -6.57,0.93 -8.11,-0.61c-1.55,-1.55 -1.86,-4.4 -0.62,-8.12c1.22,-3.67 3.87,-7.86 7.69,-11.68c3.82,-3.82 8.01,-6.47 11.68,-7.69c3.72,-1.24 6.57,-0.93 8.12,0.62z" fill="#00E016" id="svg_2" stroke="#00E016" stroke-width="2"/>
  <path d="m140.22,10.57c1.54,1.54 1.86,4.39 0.62,8.11c-1.22,3.67 -3.87,7.86 -7.69,11.68c-3.82,3.82 -8.02,6.47 -11.68,7.69c-3.73,1.24 -6.58,0.93 -8.12,-0.61c-1.54,-1.55 -1.86,-4.4 -0.62,-8.12c1.23,-3.67 3.87,-7.86 7.69,-11.68c3.82,-3.82 8.02,-6.47 11.68,-7.69c3.73,-1.24 6.58,-0.93 8.12,0.62z" fill="#00E016" id="svg_3" stroke="#00E016" stroke-width="2"/>
  <path d="m192.65,10.57c1.54,1.54 1.86,4.39 0.61,8.11c-1.22,3.67 -3.86,7.86 -7.68,11.68c-3.82,3.82 -8.02,6.47 -11.68,7.69c-3.73,1.24 -6.58,0.93 -8.12,-0.61c-1.54,-1.55 -1.86,-4.4 -0.62,-8.12c1.22,-3.67 3.87,-7.86 7.69,-11.68c3.82,-3.82 8.02,-6.47 11.68,-7.69c3.73,-1.24 6.58,-0.93 8.12,0.62z" fill="#00E016" id="svg_4" stroke="#00E016" stroke-width="2"/>
  <path d="m245.07,10.57c1.55,1.54 1.86,4.39 0.62,8.11c-1.22,3.67 -3.87,7.86 -7.69,11.68c-3.82,3.82 -8.01,6.47 -11.68,7.69c-3.72,1.24 -6.57,0.93 -8.11,-0.61c-1.55,-1.55 -1.86,-4.4 -0.62,-8.12c1.22,-3.67 3.87,-7.86 7.69,-11.68c3.81,-3.82 8.01,-6.47 11.68,-7.69c3.72,-1.24 6.57,-0.93 8.11,0.62z" fill="#00E016" id="svg_5" stroke="#00E016" stroke-width="2"/>
  <path d="m297.5,10.57c1.54,1.54 1.86,4.39 0.62,8.11c-1.22,3.67 -3.87,7.86 -7.69,11.68c-3.82,3.82 -8.02,6.47 -11.68,7.69c-3.73,1.24 -6.58,0.93 -8.12,-0.61c-1.54,-1.55 -1.86,-4.4 -0.62,-8.12c1.23,-3.67 3.87,-7.86 7.69,-11.68c3.82,-3.82 8.02,-6.47 11.68,-7.69c3.73,-1.24 6.58,-0.93 8.12,0.62z" fill="#00e000" id="svg_6" stroke="#00E016" stroke-width="2"/>
 </g>
</svg>