<svg width="636" height="120" viewBox="0 0 636 120" fill="none" xmlns="http://www.w3.org/2000/svg">
<path fill-rule="evenodd" clip-rule="evenodd" d="M508 54.5C508 57.5834 506.547 60.787 503.375 64.1005C500.194 67.4225 495.403 70.7232 489.059 73.9288C476.377 80.3369 457.896 86.1653 434.894 91.0815C388.923 100.907 325.319 107 255 107C243.619 107 232.414 106.84 221.432 106.531C213.086 105.151 205.157 103.665 197.688 102.081C174.505 97.1644 155.876 91.3354 143.093 84.926C136.697 81.7196 131.867 78.4179 128.661 75.0949C125.462 71.7798 124 68.5778 124 65.5C124 62.4222 125.462 59.2202 128.661 55.9051C131.867 52.5821 136.697 49.2804 143.093 46.074C155.876 39.6646 174.505 33.8356 197.688 28.9192C244.023 19.0933 308.128 13 379 13C389.855 13 400.55 13.1429 411.048 13.4203C419.434 14.8137 427.398 16.3165 434.894 17.9185C457.896 22.8347 476.377 28.6631 489.059 35.0712C495.403 38.2768 500.194 41.5775 503.375 44.8995C506.547 48.213 508 51.4166 508 54.5ZM396.115 11.1189C390.458 11.0401 384.751 11 379 11C237.063 11 122 35.4005 122 65.5C122 81.5992 154.917 96.0679 207.257 106.045C156.105 103.97 110.407 98.6263 75.1058 91.0815C52.1036 86.1653 33.6228 80.3369 20.9412 73.9288C14.5972 70.7232 9.80589 67.4225 6.62531 64.1005C3.45283 60.787 2 57.5834 2 54.5C2 51.4166 3.45283 48.213 6.62531 44.8995C9.80589 41.5775 14.5972 38.2768 20.9412 35.0712C33.6228 28.6631 52.1036 22.8347 75.1058 17.9185C121.077 8.09319 184.681 2 255 2C307.236 2 355.765 5.36224 396.115 11.1189ZM411.239 11.4247C368.079 4.26354 313.869 0 255 0C114.167 0 0 24.4005 0 54.5C0 82.1534 96.3651 104.996 221.24 108.527C264.786 115.717 319.534 120 379 120C520.937 120 636 95.5995 636 65.5C636 37.7159 537.959 14.7878 411.239 11.4247ZM424.965 13.8707C477.154 23.8502 510 38.3553 510 54.5C510 84.5995 395.833 109 255 109C248.824 109 242.699 108.953 236.633 108.861C277.329 114.63 326.293 118 379 118C449.872 118 513.977 111.907 560.312 102.081C583.495 97.1644 602.124 91.3354 614.907 84.926C621.302 81.7196 626.133 78.4179 629.339 75.0949C632.538 71.7798 634 68.5778 634 65.5C634 62.4222 632.538 59.2202 629.339 55.9051C626.133 52.5821 621.302 49.2804 614.907 46.074C602.124 39.6646 583.495 33.8356 560.312 28.9192C524.237 21.269 477.39 15.8815 424.965 13.8707Z" fill="#00E016"/>
</svg>
