<svg width="60" height="48" viewBox="0 0 60 48" fill="none" xmlns="http://www.w3.org/2000/svg">
<path d="M59.8451 7.59479C59.5746 6.23236 58.9705 4.98561 58.1269 3.95564C57.949 3.73123 57.7631 3.53025 57.5617 3.32928C56.067 1.82717 53.9691 0.890137 51.6772 0.890137H8.32277C6.03094 0.890137 3.94055 1.82717 2.43879 3.32928C2.23781 3.53025 2.05195 3.73123 1.87359 3.95564C1.02949 4.98549 0.425391 6.23236 0.162422 7.59479C0.054375 8.12061 0 8.664 0 9.21338V39.6626C0 40.8307 0.247734 41.9536 0.689531 42.9676C1.09934 43.9356 1.70355 44.8114 2.43867 45.5458C2.625 45.7317 2.81004 45.9026 3.01195 46.0725C4.45172 47.2649 6.3102 47.985 8.32277 47.985H51.6772C53.6905 47.985 55.5571 47.2649 56.9885 46.065C57.1898 45.9026 57.3758 45.7317 57.5617 45.5458C58.2964 44.8114 58.9005 43.9356 59.3188 42.9676V42.9601C59.7605 41.9461 59.9999 40.8307 59.9999 39.6627V9.21338C60 8.664 59.9464 8.12061 59.8451 7.59479ZM5.45027 6.34041C6.19383 5.59768 7.19238 5.14803 8.32277 5.14803H51.6772C52.8076 5.14803 53.815 5.59768 54.5497 6.34041C54.6812 6.47271 54.8051 6.62014 54.9144 6.76662L32.1909 26.5707C31.5642 27.12 30.7901 27.3913 30 27.3913C29.2179 27.3913 28.4442 27.12 27.8092 26.5707L5.09438 6.75818C5.19492 6.6117 5.31879 6.47271 5.45027 6.34041ZM4.25789 39.6626V11.1643L20.7021 25.5098L4.26621 39.8401C4.25789 39.7857 4.25789 39.7246 4.25789 39.6626ZM51.6772 43.7263H8.32277C7.58672 43.7263 6.89801 43.5328 6.3102 43.1928L23.6514 28.0805L25.2703 29.4888C26.6251 30.6661 28.3205 31.2623 30 31.2623C31.6882 31.2623 33.3834 30.6661 34.7381 29.4888L36.3562 28.0805L53.6906 43.1928C53.102 43.5328 52.4133 43.7263 51.6772 43.7263ZM55.7421 39.6626C55.7421 39.7246 55.7421 39.7857 55.7341 39.8401L39.2984 25.5181L55.7421 11.1719V39.6626Z" fill="#00E016"/>
</svg>
