<svg width="60" height="61" viewBox="0 0 60 61" fill="none" xmlns="http://www.w3.org/2000/svg">
<path d="M10.1859 8.46948C10.3315 5.89426 10.9466 4.77441 12.7107 3.87513C14.6088 2.90723 17.6025 3.35766 21.1252 5.14151C22.6425 5.91021 22.797 5.92586 25.4561 5.58493C28.9906 5.13161 33.5409 5.13321 36.8031 5.58908C39.2701 5.93383 39.4321 5.91661 40.9531 5.14631C45.9534 2.61418 49.9011 2.77986 51.3306 5.58173C52.0441 6.98028 52.1766 10.6093 51.6234 13.6024C51.3166 15.2617 51.3491 15.4689 52.0881 16.5578C57.2874 24.2196 53.5411 36.639 44.6319 41.2737C43.9501 41.6285 43.3756 41.848 42.9074 42.0267C41.4696 42.5757 41.0331 42.7425 41.5616 45.2695C41.8161 46.485 42.1226 49.507 42.2431 51.9855C42.4609 56.4655 42.4576 56.4967 41.6719 57.4107C40.6024 58.654 39.0609 58.675 38.0164 57.4605C37.3351 56.6685 37.2686 56.2945 37.2686 53.2387C37.2686 48.723 36.7736 45.7215 35.6041 43.1495C34.2134 40.0887 35.2444 38.9475 38.4249 38.2635C42.8456 37.3125 46.2984 34.5842 48.2229 30.5215C50.0526 26.6595 50.3284 21.3225 47.0204 18.0767C46.0796 16.9587 46.0141 15.9461 46.6859 12.8927C46.9369 11.7515 47.1474 10.2792 47.1536 9.62061C47.1631 8.58056 47.0684 8.42351 46.4296 8.42351C46.0254 8.42351 44.4809 9.01153 42.9979 9.73011L40.6309 10.8774C40.4156 10.9816 40.1749 11.0217 39.9374 10.9945C33.9186 10.3036 28.1996 10.293 22.1514 10.9972C21.913 11.0249 21.6712 10.9848 21.4553 10.88L19.0895 9.73203C17.6064 9.01216 16.0619 8.42351 15.6578 8.42351C14.7234 8.42351 14.7094 9.11336 15.5611 13.2119C16.0813 15.7151 16.4314 16.2728 14.9274 18.2743C12.673 21.2744 12.1099 24.9998 13.3188 28.914C14.8425 33.8465 18.5736 37.1787 23.8192 38.2905C26.9814 38.9607 27.8079 39.8352 26.6004 43.4612C25.6499 46.3147 25.0489 47.0502 23.6676 47.0502C21.809 47.0502 20.6448 45.4402 21.2855 43.7555C21.5677 43.013 21.4837 42.9337 19.7427 42.2987C14.4278 40.361 10.3627 36.0177 8.50418 30.2907C7.06766 25.8646 7.69973 20.1035 10.0043 16.6213C10.7889 15.4357 10.8011 15.3351 10.4349 13.0654C10.2277 11.7805 10.1157 9.71256 10.1859 8.46948Z" fill="#00E016"/>
<path d="M8.33014 40.8483C7.56426 39.6996 6.01209 39.3891 4.86326 40.1551C3.71446 40.9208 3.40401 42.4731 4.16989 43.6218C4.73531 44.4701 5.41174 45.1668 5.98616 45.7411C6.09206 45.8471 6.19496 45.9493 6.29544 46.0491C6.77661 46.5271 7.20146 46.9491 7.62816 47.4501C8.57194 48.5578 9.51346 50.0498 10.0486 52.7253C10.2869 53.9171 11.1435 54.5591 11.6182 54.8396C12.1329 55.1436 12.6954 55.3228 13.1582 55.4396C14.105 55.6783 15.2543 55.8023 16.345 55.8746C17.5424 55.9541 18.8399 55.9798 20 55.9868C20.0009 57.3666 21.1198 58.4851 22.5 58.4851C23.8807 58.4851 25 57.3658 25 55.9851V53.4851C25 52.1043 23.8807 50.9851 22.5 50.9851C22.2643 50.9851 22.0094 50.9858 21.7393 50.9868C20.2721 50.9913 18.3598 50.9971 16.6755 50.8856C15.8633 50.8318 15.1957 50.7556 14.7061 50.6623C13.9521 47.7026 12.7341 45.7333 11.4344 44.2076C10.8598 43.5333 10.2649 42.9433 9.78096 42.4633C9.69036 42.3736 9.60366 42.2876 9.52169 42.2056C8.96331 41.6473 8.59806 41.2503 8.33014 40.8483Z" fill="#00E016"/>
</svg>
