<svg width="50" height="47" viewBox="0 0 50 47" fill="none" xmlns="http://www.w3.org/2000/svg">
<path d="M34 15.6099C37.5804 15.6099 41.0142 17.0322 43.5459 19.5639C46.0777 22.0957 47.5 25.5294 47.5 29.1099V44.8599H38.5V29.1099C38.5 27.9164 38.0259 26.7718 37.182 25.9279C36.3381 25.084 35.1935 24.6099 34 24.6099C32.8065 24.6099 31.6619 25.084 30.818 25.9279C29.9741 26.7718 29.5 27.9164 29.5 29.1099V44.8599H20.5V29.1099C20.5 25.5294 21.9223 22.0957 24.4541 19.5639C26.9858 17.0322 30.4196 15.6099 34 15.6099ZM2.5 17.8599H11.5V44.8599H2.5V17.8599Z" stroke="#00E016" stroke-width="4" stroke-linecap="round" stroke-linejoin="round"/>
<path d="M7 11.1099C9.48528 11.1099 11.5 9.09514 11.5 6.60986C11.5 4.12458 9.48528 2.10986 7 2.10986C4.51472 2.10986 2.5 4.12458 2.5 6.60986C2.5 9.09514 4.51472 11.1099 7 11.1099Z" stroke="#00E016" stroke-width="4" stroke-linecap="round" stroke-linejoin="round"/>
</svg>
