<svg width="50" height="50" viewBox="0 0 50 50" fill="none" xmlns="http://www.w3.org/2000/svg">
<path d="M2.5 9.23486C2.5 30.6359 19.849 47.9849 41.25 47.9849C42.2155 47.9849 43.1728 47.9496 44.1208 47.8801C45.2085 47.8004 45.7523 47.7606 46.2475 47.4756C46.6575 47.2396 47.0462 46.8211 47.2517 46.3949C47.5 45.8804 47.5 45.2801 47.5 44.0799V37.0366C47.5 36.0271 47.5 35.5224 47.3338 35.0899C47.1873 34.7076 46.9487 34.3674 46.6397 34.0989C46.29 33.7949 45.8155 33.6224 44.867 33.2774L36.85 30.3621C35.7462 29.9609 35.1942 29.7601 34.6707 29.7941C34.209 29.8241 33.7648 29.9819 33.3873 30.2494C32.9593 30.5526 32.6573 31.0561 32.053 32.0634L30 35.4849C23.3752 32.4846 18.0048 27.1071 15 20.4849L18.4216 18.4319C19.4286 17.8277 19.9322 17.5256 20.2355 17.0975C20.503 16.7201 20.6608 16.2758 20.6908 15.8141C20.7248 15.2905 20.524 14.7387 20.1227 13.635L17.2075 5.61789C16.8625 4.66926 16.69 4.19494 16.3861 3.84511C16.1175 3.53609 15.7772 3.29774 15.3951 3.15099C14.9624 2.98486 14.4577 2.98486 13.4483 2.98486H6.40502C5.2047 2.98486 4.60452 2.98486 4.08995 3.23299C3.66375 3.43851 3.24535 3.82739 3.00925 4.23744C2.7242 4.73254 2.68437 5.27641 2.60472 6.36419C2.53532 7.31201 2.5 8.26931 2.5 9.23486Z" stroke="#00E016" stroke-width="4" stroke-linecap="round" stroke-linejoin="round"/>
</svg>
