<svg width="52" height="44" viewBox="0 0 52 44" fill="none" xmlns="http://www.w3.org/2000/svg">
<path d="M5.70983 19.5885C5.70983 19.5885 26.1655 11.2192 33.2598 8.27229C35.9792 7.09354 45.202 3.32136 45.202 3.32136C45.202 3.32136 49.4586 1.67135 49.1039 5.67885C48.9855 7.32917 48.0395 13.1051 47.0936 19.3526C45.6748 28.1935 44.1377 37.8592 44.1377 37.8592C44.1377 37.8592 43.9014 40.5704 41.8914 41.042C39.8811 41.5135 36.5705 39.3917 35.9792 38.9201C35.5064 38.5664 27.1114 33.262 24.0373 30.6689C23.2095 29.9617 22.2636 28.547 24.1555 26.8967C28.412 23.007 33.4964 18.1739 36.5705 15.1092C37.9892 13.6945 39.4083 10.3939 33.4964 14.4017C25.1014 20.1776 16.8245 25.6001 16.8245 25.6001C16.8245 25.6001 14.933 26.7789 11.3858 25.7179C7.83858 24.657 3.70015 23.2426 3.70015 23.2426C3.70015 23.2426 0.862021 21.4742 5.70983 19.5885Z" stroke="#00E016" stroke-width="4"/>
</svg>
